<?xml version="1.0" standalone="no"?>
<!DOCTYPE svg PUBLIC "-//W3C//DTD SVG 20010904//EN" "http://www.w3.org/TR/2001/REC-SVG-20010904/DTD/svg10.dtd">
<svg xmlns="http://www.w3.org/2000/svg" version="1.0" width="793.000000pt" height="1122.000000pt" viewBox="0 0 793.000000 1122.000000" preserveAspectRatio="xMidYMid meet">
<metadata>
Created by potrace 1.16, written by Peter Selinger 2001-2019
<meta name="Producer" content="Online-Convert"/></metadata>
<g transform="translate(0.000000,1122.000000) scale(0.100000,-0.100000)" fill="#000000" stroke="none">
<path d="M4616 8620 c4 -8 277 -343 607 -744 329 -400 596 -730 594 -732 -2 -2 -199 210 -438 473 -239 262 -492 541 -564 618 -71 78 -150 162 -173 189 -24 26 -45 46 -47 44 -2 -2 280 -313 627 -693 346 -379 677 -743 735 -808 58 -65 108 -116 110 -113 3 2 -119 154 -270 338 -151 183 -476 578 -722 878 -439 536 -477 580 -459 550z"/>
<path d="M5791 5558 c7 -13 49 -89 95 -171 46 -81 84 -156 84 -166 0 -11 4 -22 9 -25 5 -3 39 -60 76 -126 37 -66 71 -123 76 -126 5 -3 15 -1 23 3 12 7 -2 38 -72 161 -47 83 -94 154 -103 157 -10 3 -56 75 -104 160 -48 85 -89 155 -91 155 -3 0 1 -10 7 -22z"/>
<path d="M3097 5338 c-45 -64 -44 -64 -69 -41 -56 50 -54 51 -144 -85 l-82 -125 24 -36 c14 -20 34 -65 46 -101 21 -62 23 -87 28 -530 l6 -465 30 -85 29 -85 165 1 c95 0 176 5 191 12 45 18 98 135 153 332 21 78 37 252 30 329 -15 159 -93 382 -215 616 -43 83 -100 181 -127 218 l-49 68 -16 -23z m128 -653 c62 -132 79 -201 79 -330 1 -79 -4 -126 -17 -167 -20 -65 -65 -123 -102 -132 -30 -8 -89 17 -102 42 -4 9 -9 208 -11 442 l-2 425 56 -95 c31 -52 76 -135 99 -185z"/>
<path d="M5105 5225 l-76 -135 20 -26 c11 -14 30 -51 43 -82 22 -56 23 -67 28 -552 6 -477 7 -498 29 -570 12 -41 26 -79 31 -84 7 -7 123 24 152 41 4 2 -5 29 -20 61 l-27 57 0 300 c0 329 9 421 50 484 46 74 118 106 173 77 25 -13 36 -29 54 -84 20 -63 22 -90 27 -422 l6 -355 28 150 c41 225 58 396 64 646 6 238 -1 313 -38 424 -22 66 -51 105 -96 128 -28 15 -32 14 -80 -13 -60 -35 -115 -96 -151 -168 -33 -67 -40 -53 -41 81 l-1 97 -40 40 c-22 22 -44 40 -49 40 -6 0 -44 -61 -86 -135z"/>
<path d="M2475 5204 c-77 -136 -78 -137 -61 -163 10 -14 29 -51 44 -81 l26 -55 7 -520 c6 -523 8 -557 44 -611 20 -31 47 -30 121 5 l62 29 -29 57 -29 58 0 661 -1 661 -27 31 c-15 17 -39 39 -54 48 l-26 17 -77 -137z"/>
<path d="M3842 5227 c34 -88 35 -164 4 -257 -22 -67 -26 -92 -21 -133 l7 -51 -27 18 -28 19 -28 -34 c-64 -77 -118 -227 -141 -394 -16 -117 -16 -442 0 -519 16 -79 55 -161 85 -181 35 -23 103 -22 128 1 43 38 79 148 79 237 0 26 -4 22 -32 -34 -37 -72 -63 -85 -97 -47 -51 54 -90 274 -75 414 l9 82 110 -126 c175 -199 167 -187 155 -274 -6 -40 -18 -93 -26 -117 -8 -25 -14 -48 -14 -53 0 -4 64 -8 141 -8 l142 0 -7 63 c-4 34 -13 125 -22 202 -8 77 -17 259 -21 405 -7 317 5 484 53 763 l7 39 -44 -23 c-35 -19 -60 -24 -120 -24 -70 0 -84 3 -156 41 l-80 40 19 -49z m157 -605 l1 -133 -87 72 c-49 39 -87 75 -86 79 1 4 37 58 80 120 l78 112 6 -58 c4 -33 7 -119 8 -192z"/>
<path d="M4540 5276 c0 0 9 -24 19 -52 35 -92 37 -158 6 -249 -20 -60 -26 -93 -23 -133 l5 -52 -26 16 c-24 17 -26 16 -54 -17 -38 -45 -68 -101 -92 -173 -24 -70 -46 -89 -72 -63 -29 28 -22 95 15 156 26 42 32 61 31 104 -1 28 -3 44 -6 35 -2 -10 -12 -18 -21 -18 -22 0 -81 -72 -93 -113 -5 -17 -10 -65 -10 -106 0 -92 29 -158 79 -181 27 -13 32 -19 27 -40 -3 -14 -8 -106 -11 -205 -12 -321 29 -474 136 -505 41 -12 91 7 115 44 23 35 43 105 50 178 l7 63 -34 -65 c-27 -52 -38 -66 -59 -68 -37 -4 -64 37 -90 135 -23 87 -35 264 -22 332 l8 44 114 -128 c62 -71 124 -145 136 -164 23 -35 23 -37 9 -116 -7 -44 -20 -99 -28 -122 l-15 -43 146 0 146 0 -7 48 c-34 271 -40 373 -41 707 0 349 7 464 41 628 8 38 14 73 14 78 0 5 -19 -1 -42 -13 -33 -17 -60 -22 -119 -23 -70 0 -83 3 -158 41 -44 23 -81 41 -81 40z m179 -669 l1 -118 -57 45 c-32 26 -73 59 -91 74 l-33 27 83 120 83 120 6 -75 c4 -41 7 -128 8 -193z"/>
<path d="M5874 3975 c-20 -31 -34 -32 -27 -2 4 21 4 22 -11 3 -9 -11 -16 -23 -16 -28 0 -4 34 -8 75 -8 68 0 75 -2 75 -20 0 -11 -7 -20 -15 -20 -8 0 -15 -9 -15 -20 0 -15 -7 -20 -28 -20 -16 0 -31 -3 -35 -6 -3 -3 -45 -8 -94 -10 -96 -5 -143 -18 -143 -41 0 -8 -4 -12 -9 -9 -14 9 -42 -41 -34 -60 4 -11 2 -15 -4 -11 -15 9 -26 -50 -28 -148 -2 -82 11 -155 27 -155 5 0 6 -4 3 -10 -8 -13 26 -71 37 -64 4 3 8 -2 8 -10 0 -21 25 -27 129 -30 62 -2 91 0 91 8 0 8 2 8 8 0 8 -13 827 -13 875 1 15 4 27 14 27 23 0 8 3 12 6 9 8 -7 45 37 43 50 -1 4 4 22 11 38 17 40 17 196 1 265 -14 55 -43 105 -55 93 -3 -3 -6 1 -6 9 0 22 -52 41 -100 36 -22 -2 -40 0 -40 3 0 4 -20 6 -45 6 -25 -1 -45 1 -45 6 0 4 -16 7 -35 7 -28 0 -35 4 -35 20 0 11 -7 20 -15 20 -8 0 -15 9 -15 20 0 19 -7 20 -120 20 -78 0 -120 4 -120 11 0 5 -5 7 -11 3 -9 -5 -10 1 -5 22 6 27 5 28 -9 10 -8 -11 -15 -23 -15 -28 0 -4 -5 -8 -11 -8 -6 0 -8 10 -4 23 l6 22 -17 -22 c-9 -13 -20 -23 -24 -23 -5 0 -6 10 -4 23 l5 22 -17 -22 c-20 -28 -39 -30 -24 -3 14 27 3 25 -22 -2 l-20 -23 6 25 5 25 -19 -22 c-10 -13 -21 -23 -25 -23 -3 0 -4 10 0 23 l6 22 -17 -22 c-9 -13 -20 -23 -24 -23 -5 0 -6 10 -3 23 6 22 6 21 -16 -3 l-23 -25 6 25 5 25 -20 -24 c-23 -28 -36 -22 -19 8 15 29 4 26 -16 -4z m473 -313 c-10 -10 -17 -28 -17 -40 0 -47 -33 -57 -172 -52 -26 1 -57 -4 -69 -10 -14 -8 -19 -8 -15 -1 5 8 -12 11 -54 11 -38 0 -59 -4 -55 -10 3 -5 1 -10 -4 -10 -6 0 -11 5 -11 10 0 6 -25 10 -56 10 -41 0 -53 -3 -48 -12 6 -10 4 -10 -7 0 -7 6 -23 12 -36 12 -26 0 -31 15 -7 24 9 3 51 6 95 6 64 0 79 3 79 15 0 21 47 19 59 -2 10 -17 10 -17 11 0 0 20 11 22 28 5 9 -9 13 -7 18 6 4 9 4 19 2 22 -3 2 -59 6 -124 9 -65 2 -125 4 -131 4 -7 1 -13 6 -13 11 0 6 97 10 272 10 262 0 271 -1 255 -18z"/>
</g>
</svg>
